<?xml version="1.0" encoding="utf-8"?>
<!-- Generator: Adobe Illustrator 24.2.3, SVG Export Plug-In . SVG Version: 6.00 Build 0)  -->
<svg version="1.1" id="Layer_1" xmlns="http://www.w3.org/2000/svg" xmlns:xlink="http://www.w3.org/1999/xlink" x="0px" y="0px"
	 viewBox="0 0 427.1 116.9" style="enable-background:new 0 0 427.1 116.9;" xml:space="preserve">
<style type="text/css">
	.st0{fill:#231F20;}
	.st1{fill:#243E84;}
	.st2{fill:#E42028;}
	.st3{fill:#FFFFFF;}
</style>
<g>
	<path class="st0" d="M145.2,25.9v4.6h5.2v0.9h-5.2v5.9h-1V25h7.2v1H145.2z"/>
	<path class="st0" d="M155.8,25h1v12.3h-1V25z"/>
	<path class="st0" d="M171.9,25v12.3H171l-7.5-10.5v10.5h-1V25h0.8l7.6,10.5V25H171.9z"/>
	<path class="st0" d="M183.8,33.1h-5.1l-1.6,4.2h-1l4.7-12.3h0.9l4.7,12.3h-1L183.8,33.1z M183.4,32.2l-2.2-5.7l-2.2,5.7H183.4z"/>
	<path class="st0" d="M199.9,25v12.3h-0.9l-7.5-10.5v10.5h-1V25h0.8l7.6,10.5V25H199.9z"/>
	<path class="st0" d="M205.8,31.2c0-3.4,2.8-6.2,6.2-6.2c1.5,0,2.9,0.6,3.8,1.6l-0.5,0.6c-0.9-0.8-2-1.2-3.3-1.2
		c-2.9,0-5.3,2.4-5.3,5.3c0,2.9,2.3,5.3,5.2,5.3c1.3,0,2.4-0.4,3.3-1.2l0.5,0.6c-1,1-2.3,1.5-3.8,1.5
		C208.6,37.4,205.8,34.6,205.8,31.2z"/>
	<path class="st0" d="M220.1,25h1v12.3h-1V25z"/>
	<path class="st0" d="M234,33.1h-5.1l-1.6,4.2h-1L231,25h0.9l4.7,12.3h-1L234,33.1z M233.6,32.2l-2.2-5.7l-2.2,5.7H233.6z"/>
	<path class="st0" d="M241.8,25h1v11.4h6.3v1h-7.3V25z"/>
	<path class="st0" d="M260.7,36.1l0.5-0.6c0.6,0.6,2.2,1.1,3.3,1.1c1.7,0,2.8-1,2.8-2.4c0-1.4-1.6-2.2-3.2-2.8
		c-2.1-0.9-3.4-1.5-3.4-3.5c0-1.8,1.6-3.1,3.8-3c1.2,0,2.3,0.4,3.3,1l-0.4,0.7c-0.3-0.1-1.2-0.7-2.8-0.7c-1.6,0-2.7,0.8-2.8,2.1
		c-0.1,1.5,1.3,2,2.8,2.6c2.1,0.9,3.8,1.8,3.8,3.7c0,2-1.6,3.3-3.8,3.3C262.6,37.4,261,36.4,260.7,36.1z"/>
	<path class="st0" d="M280.4,36.3v1H273V25h7.2v1H274v4.6h5.2v0.9H274v4.9H280.4z"/>
	<path class="st0" d="M283.6,31.2c0-3.4,2.8-6.2,6.2-6.2c1.5,0,2.9,0.6,3.8,1.6l-0.5,0.6c-0.9-0.8-2-1.2-3.3-1.2
		c-2.9,0-5.3,2.4-5.3,5.3c0,2.9,2.3,5.3,5.2,5.3c1.3,0,2.4-0.4,3.3-1.2l0.5,0.6c-1,1-2.3,1.5-3.8,1.5
		C286.4,37.4,283.6,34.6,283.6,31.2z"/>
	<path class="st0" d="M307.1,26h-4.6v11.3h-1V26H297v-1h10.1V26z"/>
	<path class="st0" d="M310.6,31.2c0-3.4,2.6-6.2,5.8-6.2s5.9,2.8,5.9,6.2c0,3.5-2.6,6.2-5.9,6.2C313.3,37.4,310.6,34.6,310.6,31.2z
		 M321.3,31.2c0-2.9-2.1-5.3-4.8-5.3s-4.8,2.3-4.8,5.3c0,2.9,2.1,5.3,4.8,5.3S321.3,34.1,321.3,31.2z"/>
	<path class="st0" d="M331.2,31.8h-3v5.5h-1V25h4.5c2,0,3.4,1.6,3.4,3.5c0,1.7-1.1,3-2.8,3.3l3.4,5.6h-1.1L331.2,31.8z M328.2,30.9
		h3.5c1.5,0,2.5-1,2.5-2.4c0-1.4-1-2.6-2.6-2.6h-3.3V30.9z"/>
	<path class="st0" d="M355,33.1h-5.1l-1.6,4.2h-1L352,25h0.9l4.7,12.3h-1L355,33.1z M354.6,32.2l-2.2-5.7l-2.2,5.7H354.6z"/>
	<path class="st0" d="M372.1,25v12.3h-0.9l-7.5-10.5v10.5h-1V25h0.8l7.6,10.5V25H372.1z"/>
	<path class="st0" d="M387.2,31.1c0,3.5-2.6,6.2-6,6.2h-3.4V25h3.3C384.7,25,387.2,27.6,387.2,31.1z M386.2,31
		c0-3.1-2.1-5.1-5.3-5.1h-2v10.3h2.1C384,36.3,386.2,34.1,386.2,31z"/>
	<path class="st0" d="M144.2,51h1v12.3h-1V51z"/>
	<path class="st0" d="M160.3,51v12.3h-0.9l-7.5-10.5v10.5h-1V51h0.8l7.6,10.5V51H160.3z"/>
	<path class="st0" d="M174.5,52h-4.6v11.3h-1V52h-4.6v-1h10.1V52z"/>
	<path class="st0" d="M185.9,62.4v1h-7.3V51h7.2v1h-6.2v4.6h5.2v0.9h-5.2v4.9H185.9z"/>
	<path class="st0" d="M190.3,51h1v11.4h6.3v1h-7.3V51z"/>
	<path class="st0" d="M201.9,51h1v11.4h6.3v1h-7.3V51z"/>
	<path class="st0" d="M220.9,62.4v1h-7.3V51h7.2v1h-6.2v4.6h5.2v0.9h-5.2v4.9H220.9z"/>
	<path class="st0" d="M224.2,57.2c0-3.4,2.8-6.2,6.2-6.2c1.5,0,2.9,0.6,3.8,1.6l-0.5,0.6c-0.9-0.8-2-1.2-3.3-1.2
		c-2.9,0-5.3,2.4-5.3,5.3c0,2.9,2.3,5.3,5.2,5.3c1.3,0,2.4-0.4,3.3-1.2l0.5,0.6c-1,1-2.3,1.5-3.8,1.5
		C227,63.4,224.2,60.6,224.2,57.2z"/>
	<path class="st0" d="M247.6,52h-4.6v11.3h-1V52h-4.6v-1h10.1V52z"/>
	<path class="st0" d="M251.8,59.1v-8h1v8.1c0,1.7,1.6,3.3,3.7,3.3s3.6-1.5,3.6-3.3V51h1v8c0,2.8-2.6,4.3-4.6,4.3
		C254.3,63.4,251.8,61.9,251.8,59.1z"/>
	<path class="st0" d="M272.5,59.2h-5.1l-1.6,4.2h-1l4.7-12.3h0.9l4.7,12.3h-1L272.5,59.2z M272.1,58.2l-2.2-5.7l-2.2,5.7H272.1z"/>
	<path class="st0" d="M279.3,51h1v11.4h6.3v1h-7.3V51z"/>
	<path class="st0" d="M307.1,54.5c0,1.9-1.4,3.3-3.5,3.3h-3.4v5.5h-1V51h4.5C305.8,51,307.1,52.6,307.1,54.5z M306.2,54.5
		c0-1.4-1-2.6-2.6-2.6h-3.3v5h3.5C305.2,56.9,306.2,55.9,306.2,54.5z"/>
	<path class="st0" d="M315.7,57.8h-3v5.5h-1V51h4.5c2,0,3.4,1.6,3.4,3.5c0,1.7-1.1,3-2.8,3.3l3.4,5.6h-1.1L315.7,57.8z M312.7,56.9
		h3.5c1.5,0,2.5-1,2.5-2.4c0-1.4-1-2.6-2.6-2.6h-3.3V56.9z"/>
	<path class="st0" d="M323.4,57.2c0-3.4,2.6-6.2,5.8-6.2c3.2,0,5.9,2.8,5.9,6.2c0,3.5-2.6,6.2-5.9,6.2
		C326,63.4,323.4,60.6,323.4,57.2z M334.1,57.2c0-2.9-2.1-5.3-4.8-5.3s-4.8,2.3-4.8,5.3c0,2.9,2.1,5.3,4.8,5.3
		S334.1,60.1,334.1,57.2z"/>
	<path class="st0" d="M347.9,54.5c0,1.9-1.4,3.3-3.5,3.3H341v5.5h-1V51h4.5C346.5,51,347.9,52.6,347.9,54.5z M346.9,54.5
		c0-1.4-1-2.6-2.6-2.6H341v5h3.5C345.9,56.9,346.9,55.9,346.9,54.5z"/>
	<path class="st0" d="M359.8,62.4v1h-7.3V51h7.2v1h-6.2v4.6h5.2v0.9h-5.2v4.9H359.8z"/>
	<path class="st0" d="M368.1,57.8h-3v5.5h-1V51h4.5c2,0,3.4,1.6,3.4,3.5c0,1.7-1.1,3-2.8,3.3l3.4,5.6h-1.1L368.1,57.8z M365.1,56.9
		h3.5c1.5,0,2.5-1,2.5-2.4c0-1.4-1-2.6-2.6-2.6h-3.3V56.9z"/>
	<path class="st0" d="M386.3,52h-4.6v11.3h-1V52h-4.6v-1h10.1V52z"/>
	<path class="st0" d="M395.1,58.3v5h-1v-5l-4.6-7.3h1.1l3.9,6.3l3.9-6.3h1.2L395.1,58.3z"/>
	<path class="st0" d="M152.1,80.5c0,1.9-1.4,3.3-3.5,3.3h-3.4v5.5h-1V77h4.5C150.7,77,152.1,78.7,152.1,80.5z M151.2,80.5
		c0-1.4-1-2.6-2.6-2.6h-3.3v5h3.5C150.1,82.9,151.2,81.9,151.2,80.5z"/>
	<path class="st0" d="M160.7,83.8h-3v5.5h-1V77h4.5c2,0,3.4,1.6,3.4,3.5c0,1.7-1.1,3-2.8,3.3l3.4,5.6h-1.1L160.7,83.8z M157.7,82.9
		h3.5c1.5,0,2.5-1,2.5-2.4c0-1.4-1-2.6-2.6-2.6h-3.3V82.9z"/>
	<path class="st0" d="M168.4,83.2c0-3.4,2.6-6.2,5.8-6.2s5.9,2.8,5.9,6.2c0,3.5-2.6,6.2-5.9,6.2C171,89.5,168.4,86.7,168.4,83.2z
		 M179.1,83.2c0-2.9-2.1-5.3-4.8-5.3s-4.8,2.3-4.8,5.3c0,2.9,2.1,5.3,4.8,5.3S179.1,86.1,179.1,83.2z"/>
	<path class="st0" d="M195.5,88.3c-1.1,0.7-2.6,1.2-3.9,1.2c-3.8,0-6.4-2.8-6.4-6.2c0-3.5,2.8-6.3,6.2-6.3c1.5,0,2.9,0.6,3.8,1.5
		l-0.5,0.7c-0.9-0.8-2.1-1.2-3.3-1.2c-2.9,0-5.3,2.4-5.3,5.3c0,2.6,1.9,5.3,5.6,5.3c0.7,0,1.9-0.1,3-0.7v-4h-2.9V83h3.8V88.3z"/>
	<path class="st0" d="M205.4,83.8h-3v5.5h-1V77h4.5c2,0,3.4,1.6,3.4,3.5c0,1.7-1.1,3-2.8,3.3l3.4,5.6h-1.1L205.4,83.8z M202.4,82.9
		h3.5c1.5,0,2.5-1,2.5-2.4c0-1.4-1-2.6-2.6-2.6h-3.3V82.9z"/>
	<path class="st0" d="M221.9,85.2h-5.1l-1.6,4.2h-1l4.7-12.3h0.9l4.7,12.3h-1L221.9,85.2z M221.6,84.3l-2.2-5.7l-2.2,5.7H221.6z"/>
	<path class="st0" d="M240.7,77v12.3h-1l0-10.5l-4.6,6.5h-0.7l-4.6-6.5l0,10.5h-1V77h0.8l5.2,7.2l5.2-7.2H240.7z"/>
	<path class="st0" d="M258.4,77v12.3h-1l0-10.5l-4.6,6.5H252l-4.6-6.5l0,10.5h-1V77h0.8l5.2,7.2l5.2-7.2H258.4z"/>
	<path class="st0" d="M270.4,88.4v1h-7.3V77h7.2v1h-6.2v4.6h5.2v0.9h-5.2v4.9H270.4z"/>
</g>
<rect class="st1" width="116.9" height="116.9"/>
<polygon class="st2" points="116.9,116.9 89.3,116.9 116.9,89.3 "/>
<g>
	<polygon class="st3" points="34.6,52 38.7,52 38.7,39.4 49.8,39.4 49.8,35.4 34.6,35.4 	"/>
	<rect x="34.6" y="23.6" class="st3" width="17.5" height="4.1"/>
	<rect x="34.6" y="67.1" class="st3" width="4.1" height="28.4"/>
	<path class="st3" d="M75,48.1c-2.1,0-5.2-1-6.3-2L68,45.4l-2.2,2.8l0.5,0.6c0.7,0.8,4.2,3.2,8.9,3.2c5.2,0,8.9-3.3,8.9-7.9
		c0-4.7-4-6.8-8.5-8.6l-0.3-0.1c-3.3-1.3-5.1-2.1-5-4.3c0.1-2.2,1.9-3.5,4.9-3.5c2.6,0,4.3,0.9,5.1,1.3c0.2,0.1,0.3,0.1,0.4,0.2
		l0.8,0.3l2-2.9l-0.9-0.5c-2.6-1.5-4.9-2.2-7.4-2.2c-5.1-0.1-8.9,3-8.9,7.4c-0.1,4.8,3.3,6.3,7.8,8.2c3.1,1.2,6,2.6,6,5
		C80,46.5,78,48.1,75,48.1z"/>
	<path class="st3" d="M76.3,67.1H65.7V71h10.3c2.7,0,4.6,1.9,4.6,4.5c0,2.5-1.7,4.2-4.3,4.2H65.7v15.8h4.1V83.6h6.3
		c5,0,8.5-3.3,8.5-8.1C84.6,70.8,81,67.1,76.3,67.1z"/>
</g>
</svg>
