<?xml version="1.0" encoding="utf-8"?>
<!-- Generator: Adobe Illustrator 24.2.3, SVG Export Plug-In . SVG Version: 6.00 Build 0)  -->
<svg version="1.1" id="Layer_1" xmlns="http://www.w3.org/2000/svg" xmlns:xlink="http://www.w3.org/1999/xlink" x="0px" y="0px"
	 viewBox="0 0 100 100" style="enable-background:new 0 0 100 100;" xml:space="preserve">
<style type="text/css">
	.st0{fill:#71B4C4;}
	.st1{fill:#429BB0;}
	.st2{fill:#007F9C;}
	.st3{fill:#FFFFFF;}
	.st4{display:none;}
	.st5{display:inline;fill:#FFFFFF;}
</style>
<g>
	<path class="st0" d="M80.2,100h-60c-11,0-20-9-20-20V20c0-11,9-20,20-20h60c11,0,20,9,20,20v60C100.2,91,91.2,100,80.2,100z"/>
</g>
<g>
	
		<image style="overflow:visible;opacity:0.75;" width="111" height="111" xlink:href="3BD3C3DD8561755.png"  transform="matrix(1 0 0 1 2 2)">
	</image>
	<g>
		<path class="st1" d="M74.2,90h-48c-8.8,0-16-7.2-16-16V26c0-8.8,7.2-16,16-16h48c8.8,0,16,7.2,16,16v48C90.2,82.8,83,90,74.2,90z"
			/>
	</g>
</g>
<g>
	
		<image style="overflow:visible;opacity:0.75;" width="91" height="91" xlink:href="3BD3C3DD8561757.png"  transform="matrix(1 0 0 1 12 12)">
	</image>
	<g>
		<path class="st2" d="M68.2,80h-36c-6.6,0-12-5.4-12-12V32c0-6.6,5.4-12,12-12h36c6.6,0,12,5.4,12,12v36C80.2,74.6,74.8,80,68.2,80
			z"/>
	</g>
</g>
<g>
	<path class="st3" d="M51.2,59.7v2.8h-17v-25h16.7v2.8H37.4v8.1h11.7v2.6H37.4v8.6H51.2z"/>
	<path class="st3" d="M56.3,44.2l5,6.8l0.3,0.6l0.3-0.6l5-6.8h3.3l-6.9,9.2l6.9,9.2h-3.3l-5-6.7l-0.3-0.5l-0.3,0.5l-5,6.7H53
		l6.9-9.2L53,44.2H56.3z"/>
</g>
<g class="st4">
	<path class="st5" d="M35.9,65V35h3.8v30H35.9z"/>
	<path class="st5" d="M46.9,65V35h12.5c1.3,0,2.5,0.3,3.7,0.8c1.1,0.6,2.1,1.3,2.9,2.2c0.8,0.9,1.4,1.9,1.9,3.1
		c0.5,1.1,0.7,2.3,0.7,3.5c0,1.2-0.2,2.4-0.6,3.6c-0.4,1.2-1,2.2-1.8,3.1c-0.8,0.9-1.7,1.6-2.8,2.2c-1.1,0.5-2.3,0.8-3.6,0.8h-9V65
		H46.9z M50.7,50.9h8.7c0.8,0,1.5-0.2,2.1-0.5c0.6-0.3,1.2-0.8,1.6-1.4c0.5-0.6,0.8-1.2,1.1-2c0.3-0.8,0.4-1.6,0.4-2.4
		c0-0.9-0.1-1.7-0.4-2.5c-0.3-0.8-0.7-1.4-1.2-2c-0.5-0.6-1.1-1-1.7-1.3c-0.7-0.3-1.4-0.5-2.1-0.5h-8.5V50.9z"/>
</g>
<g class="st4">
	<path class="st5" d="M48.3,65V35h3.8v30H48.3z"/>
</g>
</svg>
