<?xml version="1.0" encoding="utf-8"?>
<!-- Generator: Adobe Illustrator 24.2.3, SVG Export Plug-In . SVG Version: 6.00 Build 0)  -->
<svg version="1.1" id="Layer_1" xmlns="http://www.w3.org/2000/svg" xmlns:xlink="http://www.w3.org/1999/xlink" x="0px" y="0px"
	 viewBox="0 0 136.8 69.1" style="enable-background:new 0 0 136.8 69.1;" xml:space="preserve">
<style type="text/css">
	.st0{fill:#616266;enable-background:new    ;}
	.st1{fill:#FFFFFF;}
	.st2{fill:#FFFF00;enable-background:new    ;}
</style>
<g>
	<g>
		<path d="M4.2,68.9L7,62.2h0.6l2.8,6.6H9.7l-0.9-2.3H5.7l-0.9,2.3H4.2z M6.4,65l-0.5,1.2h2.8L8.2,65c-0.2-0.4-0.3-0.8-0.5-1.1
			c-0.1-0.4-0.3-0.8-0.4-1.2h0c-0.1,0.4-0.3,0.8-0.4,1.2C6.7,64.2,6.5,64.6,6.4,65z"/>
		<path d="M11.6,68.9v-6.6h1.8c0.6,0,1.1,0.1,1.6,0.2c0.5,0.2,0.8,0.4,1.1,0.7c0.3,0.3,0.5,0.6,0.7,1c0.1,0.4,0.2,0.9,0.2,1.4
			s-0.1,1-0.2,1.4s-0.4,0.8-0.7,1.1s-0.7,0.5-1.1,0.7c-0.4,0.2-1,0.2-1.6,0.2H11.6z M12.1,68.5h1.2c0.5,0,1-0.1,1.4-0.2
			c0.4-0.1,0.7-0.3,1-0.6c0.2-0.3,0.4-0.6,0.6-0.9c0.1-0.4,0.2-0.8,0.2-1.2c0-0.4-0.1-0.8-0.2-1.2c-0.1-0.4-0.3-0.7-0.6-0.9
			c-0.2-0.3-0.6-0.5-1-0.6c-0.4-0.1-0.9-0.2-1.4-0.2h-1.2V68.5z"/>
		<path d="M18.8,68.9v-6.6h1.8c0.6,0,1.1,0.1,1.6,0.2c0.5,0.2,0.8,0.4,1.1,0.7c0.3,0.3,0.5,0.6,0.7,1c0.1,0.4,0.2,0.9,0.2,1.4
			s-0.1,1-0.2,1.4s-0.4,0.8-0.7,1.1s-0.7,0.5-1.1,0.7c-0.4,0.2-1,0.2-1.6,0.2H18.8z M19.4,68.5h1.2c0.5,0,1-0.1,1.4-0.2
			c0.4-0.1,0.7-0.3,1-0.6c0.2-0.3,0.4-0.6,0.6-0.9c0.1-0.4,0.2-0.8,0.2-1.2c0-0.4-0.1-0.8-0.2-1.2c-0.1-0.4-0.3-0.7-0.6-0.9
			c-0.2-0.3-0.6-0.5-1-0.6c-0.4-0.1-0.9-0.2-1.4-0.2h-1.2V68.5z"/>
		<path d="M26.1,68.9v-6.6h0.6v6.6H26.1z"/>
		<path d="M29,68.9v-6.6h0.6l3.3,4.7l0.9,1.3h0c0-0.3,0-0.6,0-1s0-0.6,0-1v-4.1h0.5v6.6h-0.6l-3.3-4.7l-0.9-1.3h0c0,0.3,0,0.6,0,0.9
			s0,0.6,0,0.9v4.1H29z"/>
		<path d="M39.5,69c-0.5,0-1-0.1-1.4-0.2c-0.4-0.2-0.8-0.4-1.1-0.7c-0.3-0.3-0.5-0.7-0.7-1.1c-0.2-0.4-0.2-0.9-0.2-1.4
			c0-0.5,0.1-1,0.3-1.4c0.2-0.4,0.4-0.8,0.7-1.1c0.3-0.3,0.7-0.5,1.1-0.7c0.4-0.2,0.9-0.2,1.4-0.2c0.3,0,0.5,0,0.7,0.1
			s0.4,0.1,0.6,0.2c0.2,0.1,0.3,0.2,0.5,0.3c0.1,0.1,0.3,0.2,0.4,0.3l-0.3,0.3c-0.2-0.2-0.5-0.3-0.7-0.5c-0.3-0.1-0.6-0.2-1.1-0.2
			c-0.5,0-0.9,0.1-1.2,0.2c-0.4,0.1-0.7,0.3-0.9,0.6s-0.4,0.6-0.6,0.9c-0.1,0.4-0.2,0.8-0.2,1.2c0,0.5,0.1,0.9,0.2,1.3
			c0.1,0.4,0.3,0.7,0.6,1s0.5,0.5,0.9,0.6c0.4,0.1,0.8,0.2,1.2,0.2c0.4,0,0.7,0,1-0.1c0.3-0.1,0.6-0.2,0.8-0.4V66h-1.9v-0.4h2.4v2.6
			c-0.2,0.2-0.6,0.4-1,0.5C40.5,68.9,40,69,39.5,69z"/>
		<path d="M47.7,68.9l-2.6-6.6h0.6l1.5,3.9c0.2,0.4,0.3,0.8,0.4,1.1c0.1,0.3,0.3,0.7,0.4,1.1h0c0.1-0.2,0.2-0.4,0.2-0.6
			s0.1-0.4,0.2-0.5c0.1-0.2,0.1-0.4,0.2-0.5s0.1-0.4,0.2-0.6l1.5-3.9h0.6l-2.6,6.6H47.7z"/>
		<path d="M50.9,68.9l2.8-6.6h0.6l2.8,6.6h-0.6l-0.9-2.3h-3.1l-0.9,2.3H50.9z M53.1,65l-0.5,1.2h2.8L54.9,65
			c-0.2-0.4-0.3-0.8-0.5-1.1c-0.1-0.4-0.3-0.8-0.4-1.2h0c-0.1,0.4-0.3,0.8-0.4,1.2C53.4,64.2,53.3,64.6,53.1,65z"/>
		<path d="M58.3,68.9v-6.6h0.6v6.2h3.6v0.4H58.3z"/>
		<path d="M66.3,69c-0.3,0-0.7,0-1-0.1c-0.3-0.1-0.6-0.2-0.9-0.4S64,68,63.8,67.6s-0.2-0.8-0.2-1.3v-4.1h0.6v4
			c0,0.4,0.1,0.8,0.2,1.1c0.1,0.3,0.3,0.5,0.5,0.7s0.4,0.3,0.7,0.4s0.5,0.1,0.8,0.1c0.3,0,0.6,0,0.8-0.1c0.3-0.1,0.5-0.2,0.7-0.4
			c0.2-0.2,0.4-0.4,0.5-0.7c0.1-0.3,0.2-0.7,0.2-1.1v-4h0.5v4.1c0,0.5-0.1,0.9-0.2,1.3c-0.2,0.3-0.4,0.6-0.6,0.8
			c-0.2,0.2-0.5,0.3-0.9,0.4C66.9,69,66.6,69,66.3,69z"/>
		<path d="M71.2,68.9v-6.6h4.3v0.4h-3.8v2.5H75v0.4h-3.2v2.9h3.9v0.4H71.2z"/>
		<path d="M81.5,68.9v-6.2H79v-0.4h5.6v0.4h-2.5v6.2H81.5z"/>
		<path d="M88.6,69c-0.5,0-0.9-0.1-1.3-0.2c-0.4-0.2-0.7-0.4-1-0.7c-0.3-0.3-0.5-0.7-0.7-1.1s-0.2-0.9-0.2-1.4s0.1-1,0.2-1.4
			s0.4-0.8,0.7-1.1c0.3-0.3,0.6-0.5,1-0.7c0.4-0.2,0.8-0.2,1.3-0.2c0.5,0,0.9,0.1,1.3,0.2c0.4,0.2,0.7,0.4,1,0.7
			c0.3,0.3,0.5,0.7,0.7,1.1s0.2,0.9,0.2,1.4s-0.1,1-0.2,1.4S91.2,67.7,91,68c-0.3,0.3-0.6,0.5-1,0.7C89.5,68.9,89.1,69,88.6,69z
			 M88.6,68.6c0.4,0,0.8-0.1,1.1-0.2s0.6-0.3,0.8-0.6s0.4-0.6,0.5-1s0.2-0.8,0.2-1.3c0-0.5-0.1-0.9-0.2-1.2
			c-0.1-0.4-0.3-0.7-0.5-0.9s-0.5-0.5-0.8-0.6c-0.3-0.1-0.7-0.2-1.1-0.2c-0.4,0-0.8,0.1-1.1,0.2c-0.3,0.1-0.6,0.3-0.8,0.6
			c-0.2,0.3-0.4,0.6-0.5,0.9c-0.1,0.4-0.2,0.8-0.2,1.2c0,0.5,0.1,0.9,0.2,1.3s0.3,0.7,0.5,1c0.2,0.3,0.5,0.5,0.8,0.6
			S88.2,68.6,88.6,68.6z"/>
		<path d="M97.3,68.9v-2.7l-2.4-4h0.6l1.2,2.1c0.1,0.2,0.3,0.5,0.4,0.7s0.3,0.5,0.4,0.7h0c0.2-0.2,0.3-0.5,0.4-0.7
			c0.1-0.2,0.3-0.5,0.4-0.7l1.2-2.1h0.6l-2.4,4v2.7H97.3z"/>
		<path d="M104.1,69c-0.5,0-0.9-0.1-1.3-0.2c-0.4-0.2-0.7-0.4-1-0.7c-0.3-0.3-0.5-0.7-0.7-1.1s-0.2-0.9-0.2-1.4s0.1-1,0.2-1.4
			s0.4-0.8,0.7-1.1c0.3-0.3,0.6-0.5,1-0.7c0.4-0.2,0.8-0.2,1.3-0.2c0.5,0,0.9,0.1,1.3,0.2c0.4,0.2,0.7,0.4,1,0.7
			c0.3,0.3,0.5,0.7,0.7,1.1s0.2,0.9,0.2,1.4s-0.1,1-0.2,1.4s-0.4,0.8-0.7,1.1c-0.3,0.3-0.6,0.5-1,0.7C105,68.9,104.5,69,104.1,69z
			 M104.1,68.6c0.4,0,0.8-0.1,1.1-0.2s0.6-0.3,0.8-0.6s0.4-0.6,0.5-1s0.2-0.8,0.2-1.3c0-0.5-0.1-0.9-0.2-1.2
			c-0.1-0.4-0.3-0.7-0.5-0.9s-0.5-0.5-0.8-0.6c-0.3-0.1-0.7-0.2-1.1-0.2c-0.4,0-0.8,0.1-1.1,0.2c-0.3,0.1-0.6,0.3-0.8,0.6
			c-0.2,0.3-0.4,0.6-0.5,0.9c-0.1,0.4-0.2,0.8-0.2,1.2c0,0.5,0.1,0.9,0.2,1.3s0.3,0.7,0.5,1c0.2,0.3,0.5,0.5,0.8,0.6
			S103.7,68.6,104.1,68.6z"/>
		<path d="M111.8,69c-0.3,0-0.7,0-1-0.1s-0.6-0.2-0.9-0.4s-0.4-0.5-0.6-0.8c-0.1-0.3-0.2-0.8-0.2-1.3v-4.1h0.6v4
			c0,0.4,0.1,0.8,0.2,1.1c0.1,0.3,0.3,0.5,0.5,0.7c0.2,0.2,0.4,0.3,0.7,0.4s0.5,0.1,0.8,0.1c0.3,0,0.6,0,0.8-0.1
			c0.3-0.1,0.5-0.2,0.7-0.4s0.4-0.4,0.5-0.7c0.1-0.3,0.2-0.7,0.2-1.1v-4h0.5v4.1c0,0.5-0.1,0.9-0.2,1.3c-0.2,0.3-0.4,0.6-0.6,0.8
			s-0.5,0.3-0.9,0.4C112.4,69,112.1,69,111.8,69z"/>
		<path d="M116.7,68.9v-6.6h2.3c0.4,0,0.7,0,1.1,0.1c0.3,0.1,0.6,0.2,0.8,0.3c0.2,0.1,0.4,0.3,0.5,0.5s0.2,0.5,0.2,0.8
			c0,0.5-0.2,0.9-0.5,1.2c-0.4,0.3-0.9,0.5-1.5,0.6l2.2,3.1h-0.6l-2.1-3.1h-1.7v3.1H116.7z M117.3,65.4h1.6c0.7,0,1.2-0.1,1.6-0.4
			s0.6-0.6,0.6-1.1c0-0.5-0.2-0.8-0.6-1.1s-0.9-0.3-1.6-0.3h-1.6V65.4z"/>
		<path d="M125.7,68.9v-6.6h0.6v6.6H125.7z"/>
		<path d="M128.6,68.9v-6.6h2c0.4,0,0.8,0,1.2,0.1c0.4,0.1,0.7,0.2,0.9,0.3s0.4,0.3,0.6,0.6s0.2,0.5,0.2,0.9c0,0.7-0.2,1.1-0.7,1.5
			s-1.2,0.5-2.1,0.5h-1.5v2.9H128.6z M129.1,65.6h1.4c0.8,0,1.4-0.1,1.8-0.4c0.4-0.2,0.6-0.6,0.6-1.2c0-0.6-0.2-0.9-0.6-1.1
			c-0.4-0.2-1-0.3-1.8-0.3h-1.3V65.6z"/>
	</g>
	<path class="st0" d="M132.2,55.3H4.6c-2.5,0-4.6-2.1-4.6-4.6V4.6C0,2.1,2.1,0,4.6,0h127.5c2.5,0,4.6,2.1,4.6,4.6v46.1
		C136.8,53.2,134.7,55.3,132.2,55.3z"/>
	<g>
		<path class="st1" d="M16.6,33.9c0,2.5,0.1,3.9,0.3,4.3c0.3,0.6,1.1,0.9,2.3,0.9h0.5v1.1h-9.6v-1.1h0.7c1.1,0,1.8-0.2,2.1-0.5
			c0.3-0.3,0.5-1.1,0.5-2.3v-7.9c0-2.4-0.1-3.8-0.4-4.3c-0.3-0.5-1-0.7-2.3-0.7h-0.6v-1.1c1.2-0.2,2.4-0.3,3.3-0.5
			c1-0.2,1.9-0.4,2.6-0.8h0.5V33.9z"/>
		<path class="st1" d="M27.1,21c0.1,0.5,0.2,1.1,0.4,1.7c0.1,0.6,0.2,1.3,0.2,2.1c2.1-2.6,4.3-3.9,6.8-3.9c2.7,0,4.4,1.1,5.2,3.2
			c0.3,0.8,0.4,1.5,0.4,2.1v7.6c0,2.5,0.1,3.9,0.3,4.3c0.4,0.6,1.2,0.9,2.4,0.9h0.3v1H34v-1h0.4c1.1,0,1.8-0.2,2.1-0.5
			c0.4-0.4,0.5-1.1,0.5-2.4v-9.9c0-2.6-1.2-3.9-3.7-3.9c-2.1,0-3.9,1.3-5.6,3.9v7.5c0,2.6,0.1,4,0.3,4.3c0.4,0.6,1.2,0.9,2.4,0.9
			h0.3v1h-9.1v-1h0.4c1,0,1.7-0.2,2.1-0.5c0.4-0.4,0.5-1.1,0.5-2.4v-7.9c0-2.6-0.1-4-0.3-4.4c-0.3-0.6-1.1-0.9-2.4-0.9h-0.4V22
			c1.7-0.2,3.2-0.5,4.5-0.9l0.4-0.2H27.1z"/>
		<path class="st1" d="M50.6,21c0.1,0.5,0.2,1.1,0.4,1.7c0.1,0.6,0.2,1.3,0.2,2.1c2.1-2.6,4.3-3.9,6.8-3.9c2.7,0,4.4,1.1,5.2,3.2
			c0.3,0.8,0.4,1.5,0.4,2.1v7.6c0,2.5,0.1,3.9,0.3,4.3c0.4,0.6,1.2,0.9,2.4,0.9h0.3v1h-9.1v-1h0.4c1.1,0,1.8-0.2,2.1-0.5
			c0.4-0.4,0.5-1.1,0.5-2.4v-9.9c0-2.6-1.2-3.9-3.7-3.9c-2.1,0-3.9,1.3-5.6,3.9v7.5c0,2.6,0.1,4,0.3,4.3c0.4,0.6,1.2,0.9,2.4,0.9
			h0.3v1h-9.1v-1h0.4c1,0,1.7-0.2,2.1-0.5c0.4-0.4,0.5-1.1,0.5-2.4v-7.9c0-2.6-0.1-4-0.3-4.4c-0.3-0.6-1.1-0.9-2.4-0.9h-0.4V22
			c1.7-0.2,3.2-0.5,4.5-0.9L50,21H50.6z"/>
		<path class="st2" d="M77.7,38.5c3.7,0.2,6.2,0.9,7.5,2.1c1.1,1.1,1.6,2.4,1.6,4c0,2.1-0.8,3.8-2.4,5c-1.6,1.2-3.8,1.8-6.8,1.8
			c-2.6,0-4.8-0.5-6.5-1.6c-1.6-1-2.5-2.4-2.5-4.1c0-1,0.2-1.7,0.7-2.3c0.5-0.6,1.1-0.9,1.9-0.9c0.1,0,0.3,0,0.7,0.1
			c-0.9,1-1.4,2.1-1.4,3.3c0,1.3,0.6,2.4,1.9,3.2c1.3,0.8,3,1.2,5.1,1.2c2.1,0,3.8-0.4,5-1.2c1.2-0.8,1.8-2,1.8-3.5
			c0-1.2-0.4-2.1-1.2-2.9c-0.6-0.5-1.2-0.8-2-1c-0.4-0.1-0.9-0.1-1.6-0.2c-0.7-0.1-1.5-0.1-2.5-0.2c-2.9-0.1-4.9-0.5-6.1-1.2
			c-0.9-0.5-1.4-1.3-1.4-2.4c0-2,1.3-3.3,4-3.7c-2.8-1.7-4.2-3.8-4.2-6.4c0-1.9,0.7-3.5,2.1-4.9c1.4-1.3,3.1-2,5.1-2
			c2.4,0,4.4,0.8,5.8,2.3c1.2-1.4,2.5-2.2,3.8-2.2c0.6,0,1.1,0.2,1.5,0.6c0.4,0.4,0.6,0.8,0.6,1.3c0,1-0.4,1.5-1.3,1.5
			c-0.5,0-0.9-0.3-1.2-0.9c-0.3-0.6-0.7-0.9-1-0.9c-0.5,0-1.1,0.4-1.8,1.2c0.8,1.3,1.2,2.6,1.2,3.9c0,1.5-0.4,2.8-1.2,3.9
			c-0.8,1.1-1.8,1.9-3.2,2.5c-1,0.4-2.3,0.6-3.9,0.6c-3.1,0.2-4.6,0.8-4.6,1.9c0,0.6,0.3,0.9,1,1.2c0.3,0.1,0.8,0.2,1.4,0.3
			c0.6,0.1,1.4,0.1,2.3,0.2L77.7,38.5z M73,28.2c0,3.7,1.4,5.6,4.1,5.6c2.7,0,4-1.9,4-5.9c0-4-1.4-5.9-4.1-5.9
			C74.3,22,73,24.1,73,28.2z"/>
		<path class="st1" d="M90,30.9c0-2.8,0.9-5.2,2.7-7c1.8-1.9,4.1-2.9,6.8-2.9c2.7,0,4.9,1,6.8,2.9c1.8,1.9,2.8,4.3,2.8,7
			c0,2.9-0.9,5.3-2.7,7.2c-1.8,1.8-4.1,2.8-6.8,2.8c-2.7,0-5-0.9-6.8-2.8C90.9,36.2,90,33.8,90,30.9z M93.6,31
			c0,5.9,1.9,8.8,5.8,8.8c2.1,0,3.5-0.7,4.5-2.1c0.9-1.4,1.4-3.7,1.4-6.7c0-6-2-9-5.9-9C95.6,22,93.6,25,93.6,31z"/>
		<path class="st1" d="M117.4,22v11.6c0,2.2,0.2,3.6,0.6,4.4c0.4,0.8,1.1,1.2,2.2,1.2c1,0,2-0.6,2.9-1.9l0.6,0.4
			c-1,2.1-2.6,3.1-4.8,3.1c-1.9,0-3.3-0.8-4.1-2.3c-0.4-0.9-0.6-2.8-0.6-5.6V22h-2.7V21c2.8-0.1,4.6-2.1,5.2-5.9h0.7V21h5.7V22
			H117.4z"/>
		<path class="st1" d="M12.4,11.1c0-0.5,0.2-1,0.6-1.4c0.4-0.4,1-0.6,1.7-0.6c0.6,0,1.1,0.2,1.5,0.6c0.5,0.4,0.7,0.8,0.7,1.4
			c0,0.5-0.2,1-0.7,1.4c-0.5,0.4-1,0.6-1.5,0.6c-0.6,0-1.2-0.2-1.6-0.6C12.6,12.1,12.4,11.6,12.4,11.1z"/>
	</g>
	<g>
		<path class="st1" d="M124.2,7.1c0.6,0,1.2,0.2,1.7,0.5c0.5,0.3,1,0.7,1.3,1.3c0.3,0.5,0.5,1.1,0.5,1.7s-0.2,1.2-0.5,1.7
			c-0.3,0.5-0.7,1-1.3,1.3c-0.5,0.3-1.1,0.5-1.7,0.5c-0.6,0-1.2-0.2-1.7-0.5c-0.5-0.3-1-0.7-1.3-1.3c-0.3-0.5-0.5-1.1-0.5-1.7
			s0.2-1.2,0.5-1.7c0.3-0.5,0.7-1,1.3-1.3C123,7.3,123.5,7.1,124.2,7.1z M127.2,10.6c0-0.6-0.1-1.1-0.4-1.5s-0.6-0.8-1.1-1.1
			c-0.5-0.3-1-0.4-1.5-0.4c-0.5,0-1.1,0.1-1.5,0.4c-0.5,0.3-0.8,0.6-1.1,1.1s-0.4,1-0.4,1.5s0.1,1.1,0.4,1.5s0.6,0.8,1.1,1.1
			s1,0.4,1.5,0.4c0.5,0,1.1-0.1,1.5-0.4c0.5-0.3,0.8-0.6,1.1-1.1S127.2,11.2,127.2,10.6z M125.6,12c0,0,0.1-0.1,0.1-0.1s0-0.1,0-0.1
			l-0.1-0.2c0,0-0.1-0.1-0.1-0.1c-0.1,0-0.1,0-0.1,0c-0.1,0.1-0.2,0.2-0.4,0.2c-0.2,0.1-0.5,0.2-0.7,0.2c-0.4,0-0.7-0.1-1-0.4
			c-0.3-0.3-0.4-0.6-0.4-1s0.1-0.7,0.4-1c0.2-0.3,0.6-0.4,0.9-0.4s0.7,0.1,1,0.3c0,0,0.1,0,0.1,0c0,0,0.1,0,0.1-0.1l0.1-0.2
			c0,0,0-0.1,0-0.1c0,0,0-0.1-0.1-0.1c-0.1-0.1-0.3-0.2-0.4-0.3c-0.3-0.1-0.6-0.2-0.9-0.2c-0.4,0-0.7,0.1-1,0.3
			c-0.3,0.2-0.5,0.4-0.7,0.7c-0.2,0.3-0.2,0.6-0.2,1s0.1,0.7,0.3,1c0.2,0.3,0.4,0.5,0.7,0.7c0.3,0.2,0.6,0.3,1,0.3
			c0.3,0,0.7-0.1,1-0.2C125.3,12.3,125.5,12.2,125.6,12z"/>
	</g>
</g>
</svg>
