<?xml version="1.0" encoding="utf-8"?>
<!-- Generator: Adobe Illustrator 24.2.3, SVG Export Plug-In . SVG Version: 6.00 Build 0)  -->
<svg version="1.1" id="Layer_1" xmlns="http://www.w3.org/2000/svg" xmlns:xlink="http://www.w3.org/1999/xlink" x="0px" y="0px"
	 viewBox="0 0 521.8 100" style="enable-background:new 0 0 521.8 100;" xml:space="preserve">
<style type="text/css">
	.st0{fill:#071D38;}
	.st1{fill:#FFFFFF;}
	.st2{fill:#B42025;}
</style>
<g>
	<path id="Path_6_1_" class="st0" d="M261.4,75.6c-4.8,4-11,6.1-17.2,5.7c-6.4,0.4-12.7-1.5-17.8-5.4c-4.6-4.5-7-10.8-6.4-17.3V20.8
		h7.9v37.7c-0.3,4.4,1.2,8.8,4.2,12c3.4,2.9,7.7,4.4,12.2,4.1c4.2,0.3,8.4-1.2,11.5-4.1c2.8-3.3,4.2-7.7,3.9-12V20.8h7.9v37.7
		C267.9,64.8,265.7,71,261.4,75.6z"/>
	<path id="Path_7_1_" class="st0" d="M286.1,20.8v29.5l30-29.5h10.2l-24.9,23.8l25.9,35.2h-9.9L296,50.1l-9.8,9.2v20.7h-7.9V20.8
		L286.1,20.8z"/>
	<path id="Path_8_1_" class="st0" d="M392,79.2c-3.3,1.3-6.8,2-10.3,2c-4.1,0.1-8.1-0.8-11.8-2.4c-3.4-1.6-6.4-3.8-8.9-6.6
		c-2.4-2.8-4.3-6-5.5-9.5c-1.3-3.6-1.9-7.4-1.9-11.2c0-4.2,0.6-8.3,1.8-12.3c1.1-3.7,2.9-7.2,5.3-10.2c2.4-2.9,5.4-5.3,8.8-7
		c3.8-1.8,8-2.7,12.3-2.6c3.1,0,6.1,0.4,9.1,1.1c2.7,0.7,5.3,1.9,7.6,3.5c2.3,1.6,4.2,3.7,5.6,6.1c1.6,2.7,2.7,5.8,3.1,8.9h-7.9
		c-0.3-2.1-1-4.1-2.2-5.8c-1-1.6-2.3-3-3.9-4c-1.6-1.1-3.4-1.9-5.3-2.4c-2-0.5-4.1-0.8-6.2-0.8c-3.2-0.1-6.4,0.7-9.2,2.2
		c-2.5,1.4-4.6,3.3-6.2,5.7c-1.7,2.4-2.9,5.2-3.6,8c-0.8,3-1.2,6.1-1.2,9.2c0,3,0.4,6,1.3,8.9c0.8,2.7,2.1,5.3,3.9,7.5
		c1.7,2.2,3.9,4,6.3,5.2c2.7,1.3,5.7,2,8.7,1.9c2.8,0.1,5.6-0.5,8.2-1.5c2.3-0.9,4.3-2.3,6-4.1c1.6-1.8,2.9-3.8,3.7-6.1
		c0.8-2.4,1.2-5,1.1-7.6h-18.9v-6.6h25.9v31.1h-5l-2.1-7.4C398.5,75.6,395.5,77.9,392,79.2z"/>
	<path id="Path_9_1_" class="st0" d="M416.1,49.8c0.8-2.6,2.2-5.1,4-7.1c1.8-2,4-3.7,6.5-4.8c2.8-1.2,5.9-1.8,8.9-1.7
		c3.1-0.1,6.1,0.5,9,1.7c2.5,1.1,4.7,2.7,6.5,4.8c1.8,2.1,3.2,4.5,4,7.1c0.9,2.8,1.3,5.8,1.3,8.8c0,3-0.4,5.9-1.3,8.8
		c-0.8,2.6-2.2,5-4,7.1c-1.8,2-4,3.6-6.5,4.7c-2.8,1.2-5.9,1.8-9,1.7c-3.1,0.1-6.1-0.5-8.9-1.7c-2.5-1.1-4.7-2.7-6.5-4.7
		c-1.8-2.1-3.1-4.5-4-7.1c-0.9-2.8-1.4-5.8-1.3-8.8C414.7,55.6,415.2,52.6,416.1,49.8z M423.2,65.5c0.6,1.9,1.6,3.6,2.9,5
		c1.2,1.3,2.6,2.4,4.3,3.1c1.6,0.7,3.4,1.1,5.2,1.1c1.8,0,3.5-0.4,5.2-1.1c1.6-0.7,3.1-1.8,4.3-3.1c1.3-1.5,2.3-3.2,2.9-5
		c0.7-2.2,1.1-4.6,1-6.9c0-2.3-0.3-4.7-1-6.9c-0.6-1.9-1.6-3.6-2.9-5.1c-1.2-1.3-2.6-2.4-4.3-3.1c-1.6-0.7-3.4-1.1-5.2-1.1
		c-1.8,0-3.5,0.4-5.2,1.1c-1.6,0.7-3.1,1.8-4.3,3.1c-1.3,1.5-2.2,3.2-2.9,5.1c-0.7,2.2-1.1,4.6-1,6.9
		C422.2,60.9,422.5,63.3,423.2,65.5L423.2,65.5z"/>
	<path id="Path_10_1_" class="st0" d="M472.9,79.9L457,37.1h7.9l12,35.7h0.2l11.7-35.7h7.4l-15.6,42.8H472.9z"/>
	<path id="Path_17_1_" class="st0" d="M521.8,37.1v6.2h-8.5v26.6c0,0.7,0.1,1.3,0.2,2c0.1,0.5,0.4,0.9,0.8,1.2
		c0.5,0.3,1,0.5,1.6,0.5c0.9,0.1,1.8,0.1,2.7,0.1h3.2v6.2h-5.4c-1.6,0-3.1-0.1-4.7-0.4c-1.1-0.2-2.2-0.7-3.1-1.4
		c-0.9-0.7-1.5-1.7-1.8-2.8c-0.4-1.6-0.6-3.2-0.6-4.8V43.4H499v-6.2h7.3V24.3h7v12.8H521.8z"/>
</g>
<g>
	<rect id="Rectangle_3_1_" y="0" class="st1" width="200" height="100"/>
	<path id="Path_3_2_" class="st2" d="M200,40h-90V0H90v40H0v20h90v40h20V60h90"/>
	<path id="Path_4_2_" class="st2" d="M133.3,66.6h14.9L200,92.5v7.5 M66.7,33.3H51.8L0,7.5V0L66.7,33.3z M66.7,66.7h14.9L14.9,100H0
		L66.7,66.7z M133.3,33.3h-14.9L185.1,0H200L133.3,33.3z"/>
	<path id="Path_5_2_" class="st0" d="M0,66.6v22.1l44.3-22.1 M200,66.6v22.1l-44.3-22.1H200z M0,33.3V11.2l44.3,22.1H0z M200,33.3
		V11.2l-44.3,22.1H200z M83.3,100V69.5l-61,30.5H83.3z M116.6,100V69.5l61,30.5H116.6z M83.3,0v30.5L22.4,0H83.3z M116.6,0v30.5
		l61-30.5H116.6z"/>
</g>
</svg>
