<?xml version="1.0" encoding="utf-8"?>
<!-- Generator: Adobe Illustrator 24.2.3, SVG Export Plug-In . SVG Version: 6.00 Build 0)  -->
<svg version="1.1" id="Layer_1" xmlns="http://www.w3.org/2000/svg" xmlns:xlink="http://www.w3.org/1999/xlink" x="0px" y="0px"
	 viewBox="0 0 788.2 100" style="enable-background:new 0 0 788.2 100;" xml:space="preserve">
<style type="text/css">
	.st0{fill:#071D38;}
	.st1{fill:#FFFFFF;}
	.st2{fill:#B42025;}
</style>
<g id="UK_Government" transform="translate(58.594 5.237)">
	<g id="Group_6" transform="translate(0 0)">
		<path id="Path_6" class="st0" d="M202.8,70.3c-4.8,4-11,6.1-17.2,5.7c-6.4,0.4-12.7-1.5-17.8-5.4c-4.6-4.5-7-10.8-6.4-17.3V15.6
			h7.9v37.7c-0.3,4.4,1.2,8.8,4.2,12c3.4,2.9,7.7,4.4,12.2,4.1c4.2,0.3,8.4-1.2,11.5-4.1c2.8-3.3,4.2-7.7,3.9-12V15.6h7.9v37.7
			C209.3,59.6,207.1,65.8,202.8,70.3z"/>
		<path id="Path_7" class="st0" d="M227.5,15.6v29.5l29.9-29.5h10.2l-24.9,23.8l25.9,35.2h-9.9l-21.3-29.9l-9.8,9.2v20.7h-7.9v-59
			H227.5z"/>
		<path id="Path_8" class="st0" d="M333.4,74c-3.3,1.3-6.8,2-10.3,2c-4.1,0.1-8.1-0.8-11.8-2.4c-3.4-1.6-6.4-3.8-8.9-6.6
			c-2.4-2.8-4.3-6-5.5-9.5c-1.3-3.6-1.9-7.4-1.9-11.2c0-4.2,0.6-8.3,1.8-12.3c1.1-3.7,2.9-7.2,5.3-10.2c2.4-2.9,5.4-5.3,8.8-7
			c3.8-1.8,8-2.7,12.3-2.6c3.1,0,6.1,0.4,9.1,1.1c2.7,0.7,5.3,1.9,7.6,3.5c2.3,1.6,4.2,3.7,5.6,6.1c1.6,2.7,2.7,5.8,3.1,8.9h-7.9
			c-0.3-2.1-1-4.1-2.1-5.8c-1-1.6-2.3-3-3.9-4c-1.6-1.1-3.4-1.9-5.3-2.4c-2-0.5-4.1-0.8-6.2-0.8c-3.2-0.1-6.4,0.7-9.2,2.1
			c-2.5,1.4-4.7,3.3-6.3,5.7c-1.7,2.4-2.9,5.2-3.6,8c-0.8,3-1.2,6.1-1.2,9.2c0,3,0.4,6,1.3,8.9c0.8,2.7,2.1,5.3,3.9,7.5
			c1.7,2.2,3.9,4,6.3,5.2c2.7,1.3,5.7,2,8.7,1.9c2.8,0,5.6-0.5,8.2-1.5c2.3-0.9,4.3-2.3,6-4.1c1.6-1.8,2.9-3.8,3.7-6.1
			c0.8-2.4,1.2-5,1.1-7.6h-18.9v-6.6H349v31.1h-5l-2.1-7.4C339.8,70.3,336.9,72.6,333.4,74z"/>
		<path id="Path_9" class="st0" d="M357.5,44.5c0.8-2.6,2.2-5.1,4-7.1s4-3.7,6.5-4.8c2.8-1.2,5.9-1.8,8.9-1.7c3.1-0.1,6.1,0.5,9,1.7
			c2.5,1.1,4.7,2.7,6.5,4.8s3.2,4.5,4,7.1c0.9,2.8,1.3,5.8,1.3,8.8s-0.4,5.9-1.3,8.8c-0.8,2.6-2.2,5-4,7.1c-1.8,2-4,3.6-6.5,4.7
			c-2.8,1.2-5.9,1.8-9,1.7c-3.1,0.1-6.1-0.5-8.9-1.7c-2.5-1.1-4.7-2.7-6.5-4.7c-1.8-2.1-3.1-4.5-4-7.1c-0.9-2.8-1.4-5.8-1.3-8.8
			C356.1,50.4,356.6,47.4,357.5,44.5z M364.6,60.2c0.6,1.9,1.6,3.6,2.9,5c1.2,1.3,2.6,2.4,4.3,3.1c1.6,0.7,3.4,1.1,5.2,1.1
			c1.8,0,3.5-0.4,5.2-1.1c1.6-0.7,3.1-1.8,4.3-3.1c1.3-1.5,2.3-3.2,2.9-5c0.7-2.2,1.1-4.6,1-6.9c0-2.3-0.3-4.7-1-6.9
			c-0.6-1.9-1.6-3.6-2.9-5.1c-1.2-1.3-2.6-2.4-4.3-3.1c-1.6-0.7-3.4-1.1-5.2-1.1c-1.8,0-3.5,0.4-5.2,1.1c-1.6,0.7-3.1,1.8-4.3,3.1
			c-1.3,1.5-2.2,3.2-2.9,5.1c-0.7,2.2-1.1,4.6-1,6.9C363.5,55.7,363.9,58,364.6,60.2L364.6,60.2z"/>
		<path id="Path_10" class="st0" d="M414.3,74.7l-15.9-42.8h7.9l12,35.6h0.2l11.7-35.6h7.4L422,74.7H414.3z"/>
		<path id="Path_11" class="st0" d="M470.8,72c-3.5,2.5-7.8,3.8-12.1,3.6c-3,0.1-6.1-0.5-8.9-1.7c-2.4-1-4.6-2.6-6.3-4.6
			c-1.8-2.1-3.1-4.5-3.8-7.1c-0.9-2.9-1.4-6-1.4-9s0.5-6.1,1.5-8.9c0.9-2.6,2.3-5,4.2-7c1.8-2,4-3.6,6.4-4.6
			c2.5-1.1,5.3-1.7,8.1-1.7c3.3-0.1,6.6,0.7,9.5,2.4c2.4,1.5,4.5,3.6,6,6s2.6,5.1,3.1,7.9c0.6,2.7,0.8,5.4,0.7,8.2h-32
			c-0.1,1.8,0.2,3.6,0.7,5.3c0.5,1.6,1.3,3.2,2.4,4.5c1.2,1.3,2.6,2.4,4.2,3.1c1.9,0.8,4,1.2,6,1.2c2.6,0.1,5.2-0.6,7.3-2.1
			c2-1.5,3.3-3.8,3.8-6.3h6.9C476.4,65.4,474.2,69.3,470.8,72z M469.1,44.5c-0.6-1.4-1.5-2.7-2.6-3.8s-2.4-2-3.8-2.6
			c-1.5-0.6-3.2-1-4.8-1c-1.7,0-3.4,0.3-4.9,1c-1.4,0.6-2.7,1.5-3.8,2.6c-1.1,1.1-1.9,2.4-2.5,3.8c-0.6,1.5-1,3.1-1.1,4.7h24.5
			C470.1,47.6,469.8,46,469.1,44.5z"/>
		<path id="Path_12" class="st0" d="M490.5,31.9v9h0.2c1.4-3.1,3.5-5.7,6.3-7.7c2.8-1.7,6.1-2.6,9.4-2.3v7.4
			c-2.4-0.1-4.9,0.3-7.2,1.2c-1.9,0.7-3.5,1.8-4.8,3.4c-1.3,1.6-2.2,3.4-2.6,5.4c-0.6,2.4-0.9,4.9-0.8,7.3v19h-7V31.9H490.5z"/>
		<path id="Path_13" class="st0" d="M517.1,31.9v6.8h0.2c2.7-5.1,8.1-8.1,13.9-7.8c2.4-0.1,4.8,0.3,7,1.2c1.8,0.7,3.3,1.8,4.6,3.2
			c1.2,1.4,2,3.1,2.4,4.9c0.5,2.1,0.7,4.2,0.7,6.3v28.1h-7v-29c0.1-2.3-0.7-4.6-2.3-6.3c-1.7-1.6-4-2.4-6.4-2.3
			c-1.9,0-3.8,0.3-5.6,1c-1.5,0.6-2.9,1.6-3.9,2.8c-1.1,1.2-1.9,2.7-2.4,4.3c-0.5,1.7-0.8,3.5-0.8,5.3v24.2h-7V31.9H517.1z"/>
		<path id="Path_14" class="st0" d="M561.5,31.9v6.3h0.2c3-4.7,8.2-7.5,13.8-7.3c2.5,0,5,0.5,7.2,1.7s3.9,3.2,4.6,5.6
			c1.4-2.3,3.3-4.1,5.7-5.4c2.4-1.3,5-1.9,7.7-1.9c2,0,3.9,0.2,5.8,0.7c1.6,0.4,3.1,1.2,4.5,2.2c1.3,1,2.3,2.3,2.9,3.8
			c0.7,1.8,1.1,3.7,1,5.7v31.4h-7v-28c0-1.2-0.1-2.5-0.3-3.7c-0.2-1.1-0.6-2.1-1.2-3c-0.6-0.9-1.5-1.6-2.5-2
			c-1.3-0.5-2.7-0.8-4.2-0.8c-3-0.2-6,0.9-8.2,3c-2,2.1-3.1,5-3,7.9v26.6h-7v-28c0-1.3-0.1-2.6-0.4-3.8c-0.2-1.1-0.7-2.1-1.3-3
			s-1.5-1.6-2.4-2c-1.2-0.5-2.6-0.7-3.9-0.7c-1.8-0.1-3.6,0.4-5.3,1.2c-1.4,0.8-2.6,1.8-3.6,3c-0.9,1.1-1.5,2.3-2,3.6
			c-0.4,1-0.6,2-0.6,3.1v26.6h-7V32L561.5,31.9z"/>
		<path id="Path_15" class="st0" d="M654.1,72c-3.5,2.5-7.8,3.8-12.1,3.6c-3,0.1-6.1-0.5-8.9-1.7c-2.4-1-4.6-2.6-6.3-4.6
			c-1.8-2.1-3.1-4.5-3.8-7.1c-0.9-2.9-1.4-6-1.4-9s0.5-6.1,1.5-8.9c0.9-2.6,2.3-5,4.2-7c1.8-2,4-3.6,6.4-4.6
			c2.5-1.1,5.3-1.7,8.1-1.7c3.3-0.1,6.6,0.7,9.5,2.4c2.4,1.5,4.5,3.6,6,6s2.6,5.1,3.1,7.9c0.6,2.7,0.8,5.4,0.7,8.2h-32
			c-0.1,1.8,0.2,3.6,0.7,5.3c0.5,1.6,1.3,3.2,2.4,4.5c1.2,1.3,2.6,2.4,4.2,3.1c1.9,0.8,4,1.2,6,1.2c2.6,0.1,5.2-0.6,7.3-2.1
			c2-1.5,3.3-3.8,3.8-6.3h6.9C659.7,65.4,657.4,69.3,654.1,72z M652.4,44.5c-0.6-1.4-1.5-2.7-2.6-3.8s-2.4-2-3.8-2.6
			c-1.5-0.6-3.2-1-4.8-1c-1.7,0-3.4,0.3-4.9,1c-1.4,0.6-2.7,1.5-3.8,2.6s-1.9,2.4-2.5,3.8c-0.6,1.5-1,3.1-1.1,4.7h24.6
			C653.4,47.6,653,46,652.4,44.5z"/>
		<path id="Path_16" class="st0" d="M673.8,31.9v6.8h0.2c2.7-5.1,8.1-8.1,13.9-7.8c2.4-0.1,4.8,0.3,7,1.2c1.8,0.7,3.3,1.8,4.6,3.2
			c1.2,1.4,2,3.1,2.4,4.9c0.5,2.1,0.7,4.2,0.7,6.3v28.1h-7v-29c0.1-2.3-0.7-4.6-2.3-6.3c-1.7-1.6-4-2.4-6.4-2.3
			c-1.9,0-3.8,0.3-5.6,1c-1.5,0.6-2.9,1.6-3.9,2.8c-1.1,1.2-1.9,2.7-2.4,4.3c-0.5,1.7-0.8,3.5-0.8,5.3v24.2h-7V31.9H673.8z"/>
		<path id="Path_17" class="st0" d="M729.4,31.9v6.2h-8.5v26.6c0,0.7,0.1,1.3,0.2,2c0.1,0.5,0.4,0.9,0.8,1.2c0.5,0.3,1,0.5,1.6,0.5
			c0.9,0.1,1.8,0.1,2.7,0.1h3.2v6.2H724c-1.6,0-3.1-0.1-4.7-0.4c-1.1-0.2-2.2-0.7-3.1-1.4c-0.9-0.7-1.5-1.7-1.8-2.8
			c-0.4-1.6-0.6-3.2-0.6-4.8V38.1h-7.3v-6.2h7.3V19.1h7v12.8L729.4,31.9z"/>
	</g>
</g>
<g>
	<rect id="Rectangle_3_1_" x="0.1" y="-0.1" class="st1" width="200" height="100"/>
	<path id="Path_3_2_" class="st2" d="M200,39.9h-90v-40H90v40H0v20h90v40h20v-40h90"/>
	<path id="Path_4_2_" class="st2" d="M133.4,66.6h14.9L200,92.5v7.5 M66.7,33.2H51.8L0.1,7.4v-7.5L66.7,33.2z M66.7,66.6h14.9
		L15,99.9H0.1L66.7,66.6z M133.4,33.2h-14.9l66.6-33.3H200L133.4,33.2z"/>
	<path id="Path_5_2_" class="st0" d="M0.1,66.6v22.1l44.3-22.1 M200,66.6v22.1l-44.3-22.1H200z M0.1,33.2V11.1l44.3,22.1H0.1z
		 M200,33.2V11.1l-44.3,22.1H200z M83.4,99.9V69.4l-61,30.5H83.4z M116.7,99.9V69.4l61,30.5H116.7z M83.4-0.1v30.5l-61-30.5
		C22.4-0.1,83.4-0.1,83.4-0.1z M116.7-0.1v30.5l61-30.5C177.7-0.1,116.7-0.1,116.7-0.1z"/>
</g>
</svg>
